<svg width="24" height="24" viewBox="0 0 24 24" fill="none" xmlns="http://www.w3.org/2000/svg">
<path d="M5.90652 20.859L11.5476 17.4488L17.1886 20.9007L15.7132 14.4477L20.6822 10.1442L14.133 9.562L11.5476 3.49787L8.96211 9.52033L2.41294 10.1026L7.38194 14.4413L5.90652 20.859ZM11.5476 19.1069L5.23986 22.9231C5.08958 22.988 4.94855 23.0164 4.81677 23.0086C4.68502 23.0008 4.55895 22.9573 4.43857 22.8783C4.3182 22.7992 4.2274 22.6904 4.16615 22.5519C4.1049 22.4133 4.10312 22.2625 4.16081 22.0994L5.82319 14.953L0.283648 10.125C0.156871 10.026 0.0715786 9.90512 0.0277731 9.76229C-0.0160325 9.61949 -0.00801812 9.47651 0.0518152 9.33337C0.0973985 9.20446 0.17219 9.09761 0.27619 9.01283C0.380162 8.92808 0.514773 8.87787 0.680023 8.86221L8.00269 8.21583L10.8649 1.43804C10.9354 1.2956 11.0292 1.18699 11.1464 1.11221C11.2636 1.0374 11.3973 1 11.5476 1C11.6978 1 11.8316 1.0374 11.9487 1.11221C12.0659 1.18699 12.1597 1.2956 12.2303 1.43804L15.0924 8.21583L22.4151 8.86221C22.5804 8.87787 22.715 8.92808 22.8189 9.01283C22.9229 9.09761 23.0049 9.20446 23.0647 9.33337C23.1103 9.47651 23.1112 9.61949 23.0674 9.76229C23.0235 9.90512 22.9383 10.026 22.8115 10.125L17.2719 14.953L18.9557 22.0994C18.9991 22.2625 18.9902 22.4133 18.929 22.5519C18.8677 22.6904 18.7769 22.7992 18.6566 22.8783C18.5362 22.9573 18.4101 23.0008 18.2784 23.0086C18.1466 23.0164 18.0056 22.988 17.8553 22.9231L11.5476 19.1069Z" fill="#FFB930"/>
<path d="M11.5 2L14.7093 8.37242L21.4861 9.60081L16.6928 14.7676L17.6717 21.8992L11.5 18.72L5.32825 21.8992L6.30723 14.7676L1.51391 9.60081L8.29069 8.37242L11.5 2Z" fill="#FFB930"/>
</svg>
